<svg width="344" height="51" viewBox="0 0 344 51" fill="none" xmlns="http://www.w3.org/2000/svg">
<rect width="344" height="51" rx="20" fill="#8FA200"/>
<path d="M72.939 33.336C72.939 32.6747 72.6723 32.056 72.139 31.48C71.6057 30.904 70.9337 30.3813 70.123 29.912C69.3337 29.4213 68.2563 28.824 66.891 28.12C65.2697 27.2667 63.9683 26.5413 62.987 25.944C62.0057 25.3253 61.163 24.6 60.459 23.768C59.7763 22.936 59.435 22.0187 59.435 21.016C59.435 19.9493 59.883 18.808 60.779 17.592C61.675 16.3547 62.763 15.32 64.043 14.488C65.3443 13.6347 66.539 13.208 67.627 13.208C68.9497 13.208 70.4857 13.368 72.235 13.688C73.9843 14.008 75.2643 14.3493 76.075 14.712V20.92H74.859C73.8137 19.192 72.6617 17.848 71.403 16.888C70.1657 15.928 68.8643 15.448 67.499 15.448C66.283 15.448 65.3123 15.832 64.587 16.6C63.883 17.3467 63.531 18.328 63.531 19.544C63.531 20.248 63.7977 20.9093 64.331 21.528C64.8857 22.1253 65.5577 22.6587 66.347 23.128C67.1577 23.5973 68.2777 24.2053 69.707 24.952C71.2857 25.7413 72.5657 26.4453 73.547 27.064C74.5283 27.6613 75.3497 28.3653 76.011 29.176C76.6937 29.9653 77.035 30.8613 77.035 31.864C77.035 32.9307 76.555 34.0827 75.595 35.32C74.635 36.536 73.4617 37.5707 72.075 38.424C70.7097 39.256 69.4617 39.672 68.331 39.672C66.9443 39.672 65.291 39.512 63.371 39.192C61.4723 38.872 60.107 38.5307 59.275 38.168V31.96H60.491C61.579 33.688 62.8163 35.032 64.203 35.992C65.5897 36.952 67.019 37.432 68.491 37.432C69.3657 37.432 70.1443 37.24 70.827 36.856C71.5097 36.472 72.0323 35.9707 72.395 35.352C72.7577 34.712 72.939 34.04 72.939 33.336ZM93.5213 21.688C94.6733 21.688 95.7079 22.0613 96.6253 22.808C97.5639 23.5333 98.2893 24.5253 98.8013 25.784C99.3346 27.0427 99.6013 28.4293 99.6013 29.944C99.6013 31.5867 99.0999 33.1333 98.0972 34.584C97.0946 36.0133 95.8359 37.1653 94.3213 38.04C92.8279 38.8933 91.3773 39.32 89.9693 39.32C89.0946 39.32 88.2733 39.128 87.5052 38.744C86.7586 38.36 86.0973 37.816 85.5213 37.112L84.1453 39H82.9293V16.088L80.0813 14.104V13.112L85.5533 11.064H86.7693V25.336L91.0573 21.944C91.7399 21.7733 92.5613 21.688 93.5213 21.688ZM91.8253 36.632C94.2359 36.632 95.4412 34.9147 95.4412 31.48C95.4412 29.496 95.1319 27.8213 94.5133 26.456C93.8946 25.0907 93.0199 24.408 91.8893 24.408C91.0786 24.408 90.2893 24.568 89.5213 24.888C88.7533 25.208 87.8359 25.8373 86.7693 26.776V32.504C86.7693 33.6773 87.2066 34.6587 88.0813 35.448C88.9559 36.2373 90.2039 36.632 91.8253 36.632ZM113.716 21.688C115.124 21.688 116.382 22.0613 117.492 22.808C118.622 23.5333 119.497 24.5253 120.116 25.784C120.756 27.0427 121.076 28.4293 121.076 29.944C121.076 31.5867 120.574 33.1333 119.572 34.584C118.569 36.0133 117.31 37.1653 115.796 38.04C114.302 38.8933 112.852 39.32 111.444 39.32C110.036 39.32 108.766 38.9573 107.636 38.232C106.526 37.4853 105.652 36.4827 105.012 35.224C104.393 33.9653 104.084 32.5787 104.084 31.064C104.084 29.4213 104.585 27.8853 105.588 26.456C106.59 25.0053 107.838 23.8533 109.332 23C110.846 22.1253 112.308 21.688 113.716 21.688ZM111.86 24.376C109.449 24.376 108.244 26.0933 108.244 29.528C108.244 31.5547 108.681 33.2507 109.556 34.616C110.43 35.96 111.678 36.632 113.3 36.632C115.71 36.632 116.916 34.904 116.916 31.448C116.916 29.4427 116.478 27.768 115.604 26.424C114.729 25.0587 113.481 24.376 111.86 24.376ZM136.625 21.72C137.329 21.72 137.947 21.912 138.481 22.296C139.014 22.68 139.43 23.2133 139.729 23.896L137.617 26.552H136.401C136.315 26.0187 136.155 25.6453 135.921 25.432C135.707 25.1973 135.409 25.08 135.025 25.08C134.555 25.08 134.054 25.208 133.521 25.464C133.009 25.6987 132.422 26.1573 131.76 26.84V36.376L136.241 37.752L135.601 39.032H125.073V38.04L127.921 35.8V26.744L125.073 25.08V24.088L130.545 21.4L131.536 25.336L134.865 21.944C135.313 21.7733 135.899 21.688 136.625 21.688V21.72ZM151.778 21.688C153.186 21.688 154.445 22.0613 155.554 22.808C156.685 23.5333 157.56 24.5253 158.178 25.784C158.818 27.0427 159.138 28.4293 159.138 29.944C159.138 31.5867 158.637 33.1333 157.634 34.584C156.632 36.0133 155.373 37.1653 153.858 38.04C152.365 38.8933 150.914 39.32 149.506 39.32C148.098 39.32 146.829 38.9573 145.698 38.232C144.589 37.4853 143.714 36.4827 143.074 35.224C142.456 33.9653 142.146 32.5787 142.146 31.064C142.146 29.4213 142.648 27.8853 143.65 26.456C144.653 25.0053 145.901 23.8533 147.394 23C148.909 22.1253 150.37 21.688 151.778 21.688ZM149.922 24.376C147.512 24.376 146.306 26.0933 146.306 29.528C146.306 31.5547 146.744 33.2507 147.618 34.616C148.493 35.96 149.741 36.632 151.362 36.632C153.773 36.632 154.978 34.904 154.978 31.448C154.978 29.4427 154.541 27.768 153.666 26.424C152.792 25.0587 151.544 24.376 149.922 24.376ZM177.375 13.208C178.506 13.208 179.807 13.368 181.279 13.688C182.772 14.008 183.86 14.3493 184.543 14.712V20.92H183.327C181.364 17.5707 178.762 15.896 175.519 15.896C174.111 15.896 172.82 16.312 171.647 17.144C170.495 17.9547 169.588 19.096 168.927 20.568C168.266 22.0187 167.935 23.6507 167.935 25.464C167.935 27.5547 168.255 29.464 168.895 31.192C169.556 32.92 170.548 34.3067 171.871 35.352C173.215 36.3973 174.868 36.92 176.831 36.92C178.644 36.92 181.247 35.5547 184.639 32.824L185.599 34.36L179.711 38.936C178.922 39.2133 178.154 39.3947 177.407 39.48C176.682 39.5867 175.892 39.64 175.039 39.64C172.799 39.64 170.815 39.096 169.087 38.008C167.359 36.92 166.015 35.4267 165.055 33.528C164.095 31.608 163.615 29.432 163.615 27C163.615 24.504 164.34 22.2 165.791 20.088C167.242 17.9547 169.044 16.28 171.199 15.064C173.354 13.8267 175.412 13.208 177.375 13.208ZM208.553 39H202.473V28.216C202.473 27.0427 202.292 26.2213 201.929 25.752C201.566 25.2827 200.916 25.048 199.977 25.048C199.273 25.048 198.569 25.176 197.865 25.432C197.182 25.688 196.372 26.1787 195.433 26.904V36.6L198.313 37.72L197.673 39H188.745V38.008L191.593 35.768V16.088L188.745 14.104V13.112L194.217 11.064H195.433V25.4L199.817 21.944C200.265 21.7733 200.852 21.688 201.577 21.688C203.028 21.688 204.18 22.136 205.033 23.032C205.886 23.9067 206.313 25.1013 206.313 26.616V36.6L209.193 37.72L208.553 39ZM231.568 39.032H225.488V28.248C225.488 27.0747 225.307 26.2533 224.944 25.784C224.581 25.3147 223.931 25.08 222.992 25.08C222.288 25.08 221.584 25.208 220.88 25.464C220.197 25.72 219.387 26.2107 218.448 26.936V36.632L221.328 37.752L220.688 39.032H211.76V38.04L214.608 35.8V26.744L211.76 25.08V24.088L217.232 21.4L218.288 25.56L222.832 21.944C223.28 21.7733 223.867 21.688 224.592 21.688C226.043 21.688 227.195 22.136 228.048 23.032C228.901 23.9067 229.328 25.1013 229.328 26.616V36.6L232.208 37.752L231.568 39.032ZM243.688 39H234.76V38.008L237.608 35.768V26.424L234.76 24.44V23.448L240.232 21.4H241.448V36.6L244.328 37.72L243.688 39ZM239.4 11.8C240.04 11.8 240.563 12.0347 240.968 12.504C241.395 12.9733 241.608 13.56 241.608 14.264C241.608 14.7547 241.459 15.224 241.16 15.672C240.861 16.0987 240.488 16.44 240.04 16.696C239.592 16.952 239.155 17.08 238.728 17.08C238.088 17.08 237.555 16.8453 237.128 16.376C236.723 15.9067 236.52 15.32 236.52 14.616C236.52 14.1253 236.669 13.6667 236.968 13.24C237.267 12.792 237.64 12.44 238.088 12.184C238.536 11.928 238.973 11.8 239.4 11.8ZM256.67 21.688C257.544 21.688 258.558 21.816 259.71 22.072C260.883 22.3067 261.726 22.5733 262.238 22.872V27.8H261.022C260.19 26.7333 259.23 25.9013 258.142 25.304C257.075 24.6853 255.966 24.376 254.814 24.376C253.832 24.376 253.086 24.8133 252.574 25.688C252.083 26.5627 251.838 27.8427 251.838 29.528C251.838 31.5333 252.275 33.2187 253.15 34.584C254.024 35.928 255.272 36.6 256.894 36.6C258.11 36.6 259.838 35.7253 262.078 33.976L263.038 35.192L258.11 39.064C257.256 39.2347 256.232 39.32 255.038 39.32C253.63 39.32 252.36 38.9573 251.23 38.232C250.12 37.4853 249.246 36.4827 248.606 35.224C247.987 33.9653 247.678 32.5787 247.678 31.064C247.678 29.4213 248.136 27.8747 249.054 26.424C249.992 24.9733 251.166 23.8213 252.574 22.968C253.982 22.1147 255.347 21.688 256.67 21.688ZM275.751 37.72L275.111 39H266.183V38.008L269.031 35.768V16.088L266.183 14.104V13.112L271.655 11.064H272.871V36.6L275.751 37.72ZM285.991 39H280.583L274.567 30.552L280.551 25.528L277.479 23.288L278.119 22.008H285.767V23L278.343 29.24L283.751 36.6L286.631 37.72L285.991 39Z" fill="white"/>
</svg>
