<svg width="262" height="81" viewBox="0 0 262 81" fill="none" xmlns="http://www.w3.org/2000/svg">
<rect width="262" height="81" rx="33" fill="#FFCA40"/>
<path d="M52.4139 27.5863C54.5499 27.5863 56.3379 27.7903 57.7779 28.1983C59.2419 28.6063 60.3339 29.2783 61.0539 30.2143C61.7979 31.1503 62.1699 32.3983 62.1699 33.9583C62.1699 34.9663 61.9779 35.8663 61.5939 36.6583C61.2339 37.4263 60.6819 38.0743 59.9379 38.6023C59.2179 39.1063 58.3299 39.4543 57.2739 39.6463V39.8263C58.3539 39.9943 59.3259 40.3063 60.1899 40.7623C61.0779 41.2183 61.7739 41.8663 62.2779 42.7063C62.7819 43.5463 63.0339 44.6383 63.0339 45.9823C63.0339 47.5423 62.6739 48.8743 61.9539 49.9783C61.2339 51.0583 60.2019 51.8863 58.8579 52.4623C57.5379 53.0143 55.9539 53.2903 54.1059 53.2903H45.0699V27.5863H52.4139ZM53.0619 38.5303C55.2699 38.5303 56.7819 38.1823 57.5979 37.4863C58.4139 36.7663 58.8219 35.7103 58.8219 34.3183C58.8219 32.9023 58.3179 31.8943 57.3099 31.2943C56.3259 30.6703 54.7419 30.3583 52.5579 30.3583H48.3099V38.5303H53.0619ZM48.3099 41.2303V50.5543H53.4939C55.7739 50.5543 57.3579 50.1103 58.2459 49.2223C59.1339 48.3343 59.5779 47.1703 59.5779 45.7303C59.5779 44.8183 59.3739 44.0263 58.9659 43.3543C58.5819 42.6823 57.9219 42.1663 56.9859 41.8063C56.0739 41.4223 54.8259 41.2303 53.2419 41.2303H48.3099ZM91.4523 33.9943H94.9083L86.6643 43.2823L95.5923 53.2903H91.9203L83.2083 43.4983V53.2903H80.0403V33.9943H83.2083V43.3543L91.4523 33.9943ZM115.168 43.6063C115.168 45.2143 114.952 46.6423 114.52 47.8903C114.112 49.1143 113.512 50.1583 112.72 51.0223C111.952 51.8863 111.004 52.5463 109.876 53.0023C108.772 53.4343 107.536 53.6503 106.168 53.6503C104.896 53.6503 103.72 53.4343 102.64 53.0023C101.56 52.5463 100.624 51.8863 99.8318 51.0223C99.0398 50.1583 98.4158 49.1143 97.9598 47.8903C97.5278 46.6423 97.3118 45.2143 97.3118 43.6063C97.3118 41.4703 97.6718 39.6703 98.3918 38.2063C99.1118 36.7183 100.144 35.5903 101.488 34.8223C102.832 34.0303 104.428 33.6343 106.276 33.6343C108.028 33.6343 109.564 34.0303 110.884 34.8223C112.228 35.5903 113.272 36.7183 114.016 38.2063C114.784 39.6703 115.168 41.4703 115.168 43.6063ZM100.588 43.6063C100.588 45.1183 100.78 46.4383 101.164 47.5663C101.572 48.6703 102.196 49.5223 103.036 50.1223C103.876 50.7223 104.944 51.0223 106.24 51.0223C107.536 51.0223 108.604 50.7223 109.444 50.1223C110.284 49.5223 110.896 48.6703 111.28 47.5663C111.688 46.4383 111.892 45.1183 111.892 43.6063C111.892 42.0703 111.688 40.7623 111.28 39.6823C110.872 38.6023 110.248 37.7743 109.408 37.1983C108.592 36.5983 107.524 36.2983 106.204 36.2983C104.236 36.2983 102.808 36.9463 101.92 38.2423C101.032 39.5383 100.588 41.3263 100.588 43.6063ZM129.369 33.6343C131.745 33.6343 133.653 34.4623 135.093 36.1183C136.557 37.7743 137.289 40.2703 137.289 43.6063C137.289 45.7903 136.953 47.6383 136.281 49.1503C135.633 50.6383 134.709 51.7663 133.509 52.5343C132.333 53.2783 130.941 53.6503 129.333 53.6503C128.349 53.6503 127.473 53.5183 126.705 53.2543C125.937 52.9903 125.277 52.6543 124.725 52.2463C124.197 51.8143 123.741 51.3463 123.357 50.8423H123.141C123.189 51.2503 123.237 51.7663 123.285 52.3903C123.333 53.0143 123.357 53.5543 123.357 54.0103V61.9303H120.189V33.9943H122.781L123.213 36.6223H123.357C123.741 36.0703 124.197 35.5663 124.725 35.1103C125.277 34.6543 125.925 34.2943 126.669 34.0303C127.437 33.7663 128.337 33.6343 129.369 33.6343ZM128.793 36.2983C127.497 36.2983 126.453 36.5503 125.661 37.0543C124.869 37.5343 124.293 38.2663 123.933 39.2503C123.573 40.2343 123.381 41.4823 123.357 42.9943V43.6063C123.357 45.1903 123.525 46.5343 123.861 47.6383C124.197 48.7423 124.761 49.5823 125.553 50.1583C126.369 50.7343 127.473 51.0223 128.865 51.0223C130.041 51.0223 131.001 50.6983 131.745 50.0503C132.513 49.4023 133.077 48.5263 133.437 47.4223C133.821 46.2943 134.013 45.0103 134.013 43.5703C134.013 41.3623 133.581 39.5983 132.717 38.2783C131.877 36.9583 130.569 36.2983 128.793 36.2983ZM147.413 33.6343C148.877 33.6343 150.149 33.8383 151.229 34.2463C152.309 34.6303 153.149 35.2063 153.749 35.9743C154.349 36.7183 154.649 37.6303 154.649 38.7103C154.649 39.8863 154.325 40.8223 153.677 41.5183C153.029 42.1903 152.141 42.6823 151.013 42.9943V43.1383C151.781 43.3543 152.489 43.6543 153.137 44.0383C153.785 44.4223 154.301 44.9263 154.685 45.5503C155.093 46.1743 155.297 46.9783 155.297 47.9623C155.297 49.0183 154.997 49.9783 154.397 50.8423C153.821 51.7063 152.921 52.3903 151.697 52.8943C150.497 53.3983 148.949 53.6503 147.053 53.6503C146.141 53.6503 145.265 53.6023 144.425 53.5063C143.609 53.4103 142.865 53.2663 142.193 53.0743C141.545 52.8823 140.969 52.6543 140.465 52.3903V49.5463C141.281 49.9303 142.241 50.2783 143.345 50.5903C144.473 50.9023 145.697 51.0583 147.017 51.0583C147.977 51.0583 148.841 50.9503 149.609 50.7343C150.401 50.5183 151.025 50.1823 151.481 49.7263C151.937 49.2463 152.165 48.5983 152.165 47.7823C152.165 47.0383 151.961 46.4383 151.553 45.9823C151.145 45.5023 150.533 45.1423 149.717 44.9023C148.925 44.6623 147.905 44.5423 146.657 44.5423H144.065V41.9503H146.153C147.809 41.9503 149.129 41.7343 150.113 41.3023C151.121 40.8463 151.625 40.0783 151.625 38.9983C151.625 38.0863 151.241 37.4023 150.473 36.9463C149.729 36.4903 148.649 36.2623 147.233 36.2623C146.177 36.2623 145.241 36.3703 144.425 36.5863C143.633 36.7783 142.757 37.0783 141.797 37.4863L140.681 34.9663C141.713 34.5103 142.793 34.1743 143.921 33.9583C145.049 33.7423 146.213 33.6343 147.413 33.6343ZM162.974 45.7663C162.974 45.9823 162.962 46.2943 162.938 46.7023C162.938 47.0863 162.926 47.5063 162.902 47.9623C162.878 48.3943 162.854 48.8143 162.83 49.2223C162.806 49.6063 162.782 49.9183 162.758 50.1583L173.09 33.9943H176.978V53.2903H174.026V41.9143C174.026 41.5303 174.026 41.0263 174.026 40.4023C174.05 39.7783 174.074 39.1663 174.098 38.5663C174.122 37.9423 174.146 37.4743 174.17 37.1623L163.91 53.2903H159.986V33.9943H162.974V45.7663ZM186.286 33.9943V42.0223H196.762V33.9943H199.93V53.2903H196.762V44.6863H186.286V53.2903H183.118V33.9943H186.286ZM203.016 33.9943H206.4L210.576 44.9743C210.816 45.6223 211.032 46.2463 211.224 46.8463C211.44 47.4463 211.632 48.0343 211.8 48.6103C211.968 49.1623 212.1 49.7023 212.196 50.2303H212.34C212.484 49.6303 212.712 48.8503 213.024 47.8903C213.336 46.9063 213.66 45.9223 213.996 44.9383L217.92 33.9943H221.34L213.024 55.9543C212.568 57.1543 212.028 58.1983 211.404 59.0863C210.804 59.9983 210.06 60.6943 209.172 61.1743C208.308 61.6783 207.252 61.9303 206.004 61.9303C205.428 61.9303 204.924 61.8943 204.492 61.8223C204.06 61.7743 203.688 61.7143 203.376 61.6423V59.1223C203.64 59.1703 203.952 59.2183 204.312 59.2663C204.696 59.3143 205.092 59.3383 205.5 59.3383C206.244 59.3383 206.88 59.1943 207.408 58.9063C207.96 58.6423 208.428 58.2463 208.812 57.7183C209.196 57.2143 209.52 56.6143 209.784 55.9183L210.792 53.3623L203.016 33.9943Z" fill="black"/>
</svg>
