<svg width="467" height="81" viewBox="0 0 467 81" fill="none" xmlns="http://www.w3.org/2000/svg">
<rect width="466.049" height="81" rx="33" fill="#FFCA40"/>
<path d="M51.0619 28.296V51.12H54.3379V60.768H51.2419V54H33.5659V60.768H30.4699V51.12H32.4499C33.3139 49.632 34.1299 47.964 34.8979 46.116C35.6899 44.268 36.3859 42.336 36.9859 40.32C37.5859 38.28 38.0779 36.24 38.4619 34.2C38.8459 32.16 39.0859 30.192 39.1819 28.296H51.0619ZM42.0259 31.212C41.9299 32.604 41.6899 34.176 41.3059 35.928C40.9459 37.68 40.4779 39.48 39.9019 41.328C39.3499 43.152 38.7259 44.916 38.0299 46.62C37.3579 48.324 36.6379 49.824 35.8699 51.12H47.8579V31.212H42.0259ZM74.9805 44.316C74.9805 45.924 74.7645 47.352 74.3325 48.6C73.9245 49.824 73.3245 50.868 72.5325 51.732C71.7645 52.596 70.8165 53.256 69.6885 53.712C68.5845 54.144 67.3485 54.36 65.9805 54.36C64.7085 54.36 63.5325 54.144 62.4525 53.712C61.3725 53.256 60.4365 52.596 59.6445 51.732C58.8525 50.868 58.2285 49.824 57.7725 48.6C57.3405 47.352 57.1245 45.924 57.1245 44.316C57.1245 42.18 57.4845 40.38 58.2045 38.916C58.9245 37.428 59.9565 36.3 61.3005 35.532C62.6445 34.74 64.2405 34.344 66.0885 34.344C67.8405 34.344 69.3765 34.74 70.6965 35.532C72.0405 36.3 73.0845 37.428 73.8285 38.916C74.5965 40.38 74.9805 42.18 74.9805 44.316ZM60.4005 44.316C60.4005 45.828 60.5925 47.148 60.9765 48.276C61.3845 49.38 62.0085 50.232 62.8485 50.832C63.6885 51.432 64.7565 51.732 66.0525 51.732C67.3485 51.732 68.4165 51.432 69.2565 50.832C70.0965 50.232 70.7085 49.38 71.0925 48.276C71.5005 47.148 71.7045 45.828 71.7045 44.316C71.7045 42.78 71.5005 41.472 71.0925 40.392C70.6845 39.312 70.0605 38.484 69.2205 37.908C68.4045 37.308 67.3365 37.008 66.0165 37.008C64.0485 37.008 62.6205 37.656 61.7325 38.952C60.8445 40.248 60.4005 42.036 60.4005 44.316ZM78.9934 42.408C78.9934 39.6 79.2694 37.212 79.8214 35.244C80.3974 33.252 81.2734 31.668 82.4494 30.492C83.6494 29.292 85.1854 28.488 87.0574 28.08C88.6174 27.744 90.1414 27.444 91.6294 27.18C93.1174 26.916 94.5094 26.676 95.8054 26.46L96.3454 29.232C95.7214 29.328 95.0254 29.448 94.2574 29.592C93.4894 29.712 92.7094 29.844 91.9174 29.988C91.1254 30.108 90.3574 30.24 89.6134 30.384C88.8934 30.504 88.2574 30.624 87.7054 30.744C86.9134 30.912 86.2054 31.2 85.5814 31.608C84.9574 31.992 84.4174 32.52 83.9614 33.192C83.5294 33.864 83.1814 34.692 82.9174 35.676C82.6534 36.66 82.4974 37.824 82.4494 39.168H82.6654C83.0014 38.712 83.4574 38.244 84.0334 37.764C84.6334 37.284 85.3414 36.876 86.1574 36.54C86.9974 36.204 87.9454 36.036 89.0014 36.036C90.6814 36.036 92.0734 36.408 93.1774 37.152C94.3054 37.872 95.1454 38.88 95.6974 40.176C96.2734 41.472 96.5614 42.984 96.5614 44.712C96.5614 46.848 96.1894 48.636 95.4454 50.076C94.7014 51.516 93.6694 52.596 92.3494 53.316C91.0294 54.012 89.4934 54.36 87.7414 54.36C86.4214 54.36 85.2214 54.108 84.1414 53.604C83.0614 53.076 82.1374 52.308 81.3694 51.3C80.6014 50.292 80.0134 49.044 79.6054 47.556C79.1974 46.068 78.9934 44.352 78.9934 42.408ZM87.9934 51.732C89.0494 51.732 89.9614 51.516 90.7294 51.084C91.5214 50.652 92.1334 49.944 92.5654 48.96C92.9974 47.976 93.2134 46.668 93.2134 45.036C93.2134 43.068 92.8414 41.52 92.0974 40.392C91.3774 39.24 90.1774 38.664 88.4974 38.664C87.4414 38.664 86.4814 38.904 85.6174 39.384C84.7534 39.84 84.0334 40.368 83.4574 40.968C82.8814 41.568 82.4734 42.072 82.2334 42.48C82.2334 43.656 82.3174 44.796 82.4854 45.9C82.6534 47.004 82.9414 48 83.3494 48.888C83.7814 49.752 84.3694 50.448 85.1134 50.976C85.8814 51.48 86.8414 51.732 87.9934 51.732ZM108.86 34.38C111.212 34.38 112.952 34.896 114.08 35.928C115.208 36.96 115.772 38.604 115.772 40.86V54H113.468L112.856 51.264H112.712C112.16 51.96 111.584 52.548 110.984 53.028C110.408 53.484 109.736 53.82 108.968 54.036C108.224 54.252 107.312 54.36 106.232 54.36C105.08 54.36 104.036 54.156 103.1 53.748C102.188 53.34 101.468 52.716 100.94 51.876C100.412 51.012 100.148 49.932 100.148 48.636C100.148 46.716 100.904 45.24 102.416 44.208C103.928 43.152 106.256 42.576 109.4 42.48L112.676 42.372V41.22C112.676 39.612 112.328 38.496 111.632 37.872C110.936 37.248 109.952 36.936 108.68 36.936C107.672 36.936 106.712 37.092 105.8 37.404C104.888 37.692 104.036 38.028 103.244 38.412L102.272 36.036C103.112 35.58 104.108 35.196 105.26 34.884C106.412 34.548 107.612 34.38 108.86 34.38ZM109.796 44.676C107.396 44.772 105.728 45.156 104.792 45.828C103.88 46.5 103.424 47.448 103.424 48.672C103.424 49.752 103.748 50.544 104.396 51.048C105.068 51.552 105.92 51.804 106.952 51.804C108.584 51.804 109.94 51.36 111.02 50.472C112.1 49.56 112.64 48.168 112.64 46.296V44.568L109.796 44.676ZM137.248 39.564C137.248 40.764 136.888 41.7 136.168 42.372C135.448 43.044 134.524 43.5 133.396 43.74V43.884C134.596 44.052 135.64 44.484 136.528 45.18C137.416 45.852 137.86 46.908 137.86 48.348C137.86 49.164 137.704 49.92 137.392 50.616C137.104 51.312 136.648 51.912 136.024 52.416C135.4 52.92 134.596 53.316 133.612 53.604C132.628 53.868 131.44 54 130.048 54H121.732V34.704H130.012C131.38 34.704 132.604 34.86 133.684 35.172C134.788 35.46 135.652 35.964 136.276 36.684C136.924 37.38 137.248 38.34 137.248 39.564ZM134.584 48.348C134.584 47.244 134.164 46.452 133.324 45.972C132.484 45.492 131.248 45.252 129.616 45.252H124.9V51.444H129.688C131.272 51.444 132.484 51.216 133.324 50.76C134.164 50.28 134.584 49.476 134.584 48.348ZM134.044 39.96C134.044 39.048 133.708 38.388 133.036 37.98C132.388 37.548 131.32 37.332 129.832 37.332H124.9V42.624H129.256C130.816 42.624 132.004 42.408 132.82 41.976C133.636 41.544 134.044 40.872 134.044 39.96ZM145.462 46.476C145.462 46.692 145.45 47.004 145.426 47.412C145.426 47.796 145.414 48.216 145.39 48.672C145.366 49.104 145.342 49.524 145.318 49.932C145.294 50.316 145.27 50.628 145.246 50.868L155.578 34.704H159.466V54H156.514V42.624C156.514 42.24 156.514 41.736 156.514 41.112C156.538 40.488 156.562 39.876 156.586 39.276C156.61 38.652 156.634 38.184 156.658 37.872L146.398 54H142.474V34.704H145.462V46.476ZM178.927 37.368H172.627V54H169.495V37.368H163.267V34.704H178.927V37.368ZM191.62 42.624C193.3 42.624 194.692 42.828 195.796 43.236C196.9 43.644 197.728 44.256 198.28 45.072C198.856 45.864 199.144 46.872 199.144 48.096C199.144 49.296 198.868 50.34 198.316 51.228C197.788 52.116 196.96 52.8 195.832 53.28C194.704 53.76 193.252 54 191.476 54H182.728V34.704H185.896V42.624H191.62ZM195.976 48.276C195.976 47.1 195.556 46.308 194.716 45.9C193.9 45.468 192.748 45.252 191.26 45.252H185.896V51.444H191.332C192.676 51.444 193.78 51.204 194.644 50.724C195.532 50.244 195.976 49.428 195.976 48.276ZM231.607 39.564C231.607 40.764 231.247 41.7 230.527 42.372C229.807 43.044 228.883 43.5 227.755 43.74V43.884C228.955 44.052 229.999 44.484 230.887 45.18C231.775 45.852 232.219 46.908 232.219 48.348C232.219 49.164 232.063 49.92 231.751 50.616C231.463 51.312 231.007 51.912 230.383 52.416C229.759 52.92 228.955 53.316 227.971 53.604C226.987 53.868 225.799 54 224.407 54H216.091V34.704H224.371C225.739 34.704 226.963 34.86 228.043 35.172C229.147 35.46 230.011 35.964 230.635 36.684C231.283 37.38 231.607 38.34 231.607 39.564ZM228.943 48.348C228.943 47.244 228.523 46.452 227.683 45.972C226.843 45.492 225.607 45.252 223.975 45.252H219.259V51.444H224.047C225.631 51.444 226.843 51.216 227.683 50.76C228.523 50.28 228.943 49.476 228.943 48.348ZM228.403 39.96C228.403 39.048 228.067 38.388 227.395 37.98C226.747 37.548 225.679 37.332 224.191 37.332H219.259V42.624H223.615C225.175 42.624 226.363 42.408 227.179 41.976C227.995 41.544 228.403 40.872 228.403 39.96ZM256.562 54.36C254.858 54.36 253.334 54.012 251.99 53.316C250.67 52.62 249.626 51.54 248.858 50.076C248.114 48.612 247.742 46.74 247.742 44.46C247.742 42.084 248.138 40.152 248.93 38.664C249.722 37.176 250.79 36.084 252.134 35.388C253.502 34.692 255.05 34.344 256.778 34.344C257.762 34.344 258.71 34.452 259.622 34.668C260.534 34.86 261.278 35.1 261.854 35.388L260.882 38.016C260.306 37.8 259.634 37.596 258.866 37.404C258.098 37.212 257.378 37.116 256.706 37.116C255.41 37.116 254.342 37.392 253.502 37.944C252.662 38.496 252.038 39.312 251.63 40.392C251.222 41.472 251.018 42.816 251.018 44.424C251.018 45.96 251.222 47.268 251.63 48.348C252.038 49.428 252.65 50.244 253.466 50.796C254.282 51.348 255.302 51.624 256.526 51.624C257.582 51.624 258.506 51.516 259.298 51.3C260.114 51.084 260.858 50.82 261.53 50.508V53.316C260.882 53.652 260.162 53.904 259.37 54.072C258.602 54.264 257.666 54.36 256.562 54.36ZM275.299 34.344C277.675 34.344 279.583 35.172 281.023 36.828C282.487 38.484 283.219 40.98 283.219 44.316C283.219 46.5 282.883 48.348 282.211 49.86C281.563 51.348 280.639 52.476 279.439 53.244C278.263 53.988 276.871 54.36 275.263 54.36C274.279 54.36 273.403 54.228 272.635 53.964C271.867 53.7 271.207 53.364 270.655 52.956C270.127 52.524 269.671 52.056 269.287 51.552H269.071C269.119 51.96 269.167 52.476 269.215 53.1C269.263 53.724 269.287 54.264 269.287 54.72V62.64H266.119V34.704H268.711L269.143 37.332H269.287C269.671 36.78 270.127 36.276 270.655 35.82C271.207 35.364 271.855 35.004 272.599 34.74C273.367 34.476 274.267 34.344 275.299 34.344ZM274.723 37.008C273.427 37.008 272.383 37.26 271.591 37.764C270.799 38.244 270.223 38.976 269.863 39.96C269.503 40.944 269.311 42.192 269.287 43.704V44.316C269.287 45.9 269.455 47.244 269.791 48.348C270.127 49.452 270.691 50.292 271.483 50.868C272.299 51.444 273.403 51.732 274.795 51.732C275.971 51.732 276.931 51.408 277.675 50.76C278.443 50.112 279.007 49.236 279.367 48.132C279.751 47.004 279.943 45.72 279.943 44.28C279.943 42.072 279.511 40.308 278.647 38.988C277.807 37.668 276.499 37.008 274.723 37.008ZM295.575 34.38C297.927 34.38 299.667 34.896 300.795 35.928C301.923 36.96 302.487 38.604 302.487 40.86V54H300.183L299.571 51.264H299.427C298.875 51.96 298.299 52.548 297.699 53.028C297.123 53.484 296.451 53.82 295.683 54.036C294.939 54.252 294.027 54.36 292.947 54.36C291.795 54.36 290.751 54.156 289.815 53.748C288.903 53.34 288.183 52.716 287.655 51.876C287.127 51.012 286.863 49.932 286.863 48.636C286.863 46.716 287.619 45.24 289.131 44.208C290.643 43.152 292.971 42.576 296.115 42.48L299.391 42.372V41.22C299.391 39.612 299.043 38.496 298.347 37.872C297.651 37.248 296.667 36.936 295.395 36.936C294.387 36.936 293.427 37.092 292.515 37.404C291.603 37.692 290.751 38.028 289.959 38.412L288.987 36.036C289.827 35.58 290.823 35.196 291.975 34.884C293.127 34.548 294.327 34.38 295.575 34.38ZM296.511 44.676C294.111 44.772 292.443 45.156 291.507 45.828C290.595 46.5 290.139 47.448 290.139 48.672C290.139 49.752 290.463 50.544 291.111 51.048C291.783 51.552 292.635 51.804 293.667 51.804C295.299 51.804 296.655 51.36 297.735 50.472C298.815 49.56 299.355 48.168 299.355 46.296V44.568L296.511 44.676ZM323.963 39.564C323.963 40.764 323.603 41.7 322.883 42.372C322.163 43.044 321.239 43.5 320.111 43.74V43.884C321.311 44.052 322.355 44.484 323.243 45.18C324.131 45.852 324.575 46.908 324.575 48.348C324.575 49.164 324.419 49.92 324.107 50.616C323.819 51.312 323.363 51.912 322.739 52.416C322.115 52.92 321.311 53.316 320.327 53.604C319.343 53.868 318.155 54 316.763 54H308.447V34.704H316.727C318.095 34.704 319.319 34.86 320.399 35.172C321.503 35.46 322.367 35.964 322.991 36.684C323.639 37.38 323.963 38.34 323.963 39.564ZM321.299 48.348C321.299 47.244 320.879 46.452 320.039 45.972C319.199 45.492 317.963 45.252 316.331 45.252H311.615V51.444H316.403C317.987 51.444 319.199 51.216 320.039 50.76C320.879 50.28 321.299 49.476 321.299 48.348ZM320.759 39.96C320.759 39.048 320.423 38.388 319.751 37.98C319.103 37.548 318.035 37.332 316.547 37.332H311.615V42.624H315.971C317.531 42.624 318.719 42.408 319.535 41.976C320.351 41.544 320.759 40.872 320.759 39.96ZM332.357 34.704V42.732H342.833V34.704H346.001V54H342.833V45.396H332.357V54H329.189V34.704H332.357ZM359.563 34.344C361.219 34.344 362.635 34.704 363.811 35.424C365.011 36.144 365.923 37.164 366.547 38.484C367.195 39.78 367.519 41.304 367.519 43.056V44.964H354.307C354.355 47.148 354.907 48.816 355.963 49.968C357.043 51.096 358.543 51.66 360.463 51.66C361.687 51.66 362.767 51.552 363.703 51.336C364.663 51.096 365.647 50.76 366.655 50.328V53.1C365.671 53.532 364.699 53.844 363.739 54.036C362.779 54.252 361.639 54.36 360.319 54.36C358.495 54.36 356.875 53.988 355.459 53.244C354.067 52.5 352.975 51.396 352.183 49.932C351.415 48.444 351.031 46.632 351.031 44.496C351.031 42.384 351.379 40.572 352.075 39.06C352.795 37.548 353.791 36.384 355.063 35.568C356.359 34.752 357.859 34.344 359.563 34.344ZM359.527 36.936C358.015 36.936 356.815 37.428 355.927 38.412C355.063 39.372 354.547 40.716 354.379 42.444H364.207C364.207 41.34 364.039 40.38 363.703 39.564C363.367 38.748 362.851 38.112 362.155 37.656C361.483 37.176 360.607 36.936 359.527 36.936ZM375.599 34.704V42.732H386.075V34.704H389.243V54H386.075V45.396H375.599V54H372.431V34.704H375.599ZM398.341 46.476C398.341 46.692 398.329 47.004 398.305 47.412C398.305 47.796 398.293 48.216 398.269 48.672C398.245 49.104 398.221 49.524 398.197 49.932C398.173 50.316 398.149 50.628 398.125 50.868L408.457 34.704H412.345V54H409.393V42.624C409.393 42.24 409.393 41.736 409.393 41.112C409.417 40.488 409.441 39.876 409.465 39.276C409.489 38.652 409.513 38.184 409.537 37.872L399.277 54H395.353V34.704H398.341V46.476ZM425.938 34.344C427.594 34.344 429.01 34.704 430.186 35.424C431.386 36.144 432.298 37.164 432.922 38.484C433.57 39.78 433.894 41.304 433.894 43.056V44.964H420.682C420.73 47.148 421.282 48.816 422.338 49.968C423.418 51.096 424.918 51.66 426.838 51.66C428.062 51.66 429.142 51.552 430.078 51.336C431.038 51.096 432.022 50.76 433.03 50.328V53.1C432.046 53.532 431.074 53.844 430.114 54.036C429.154 54.252 428.014 54.36 426.694 54.36C424.87 54.36 423.25 53.988 421.834 53.244C420.442 52.5 419.35 51.396 418.558 49.932C417.79 48.444 417.406 46.632 417.406 44.496C417.406 42.384 417.754 40.572 418.45 39.06C419.17 37.548 420.166 36.384 421.438 35.568C422.734 34.752 424.234 34.344 425.938 34.344ZM425.902 36.936C424.39 36.936 423.19 37.428 422.302 38.412C421.438 39.372 420.922 40.716 420.754 42.444H430.582C430.582 41.34 430.414 40.38 430.078 39.564C429.742 38.748 429.226 38.112 428.53 37.656C427.858 37.176 426.982 36.936 425.902 36.936Z" fill="black"/>
</svg>
