<svg width="246" height="82" viewBox="0 0 246 82" fill="none" xmlns="http://www.w3.org/2000/svg">
<rect x="0.280029" width="245.72" height="81.0353" rx="33" fill="#FFCA40"/>
<path d="M83.465 53.2983H79.577L67.949 40.2663V53.2983H64.709V27.5943H67.949V40.0503L79.289 27.5943H82.961L71.801 40.0863L83.465 53.2983ZM83.5069 34.0023H86.8909L91.0669 44.9823C91.3069 45.6303 91.5229 46.2543 91.7149 46.8543C91.9309 47.4543 92.1229 48.0423 92.2909 48.6183C92.4589 49.1703 92.5909 49.7103 92.6869 50.2383H92.8309C92.9749 49.6383 93.2029 48.8583 93.5149 47.8983C93.8269 46.9143 94.1509 45.9303 94.4869 44.9463L98.4109 34.0023H101.831L93.5149 55.9623C93.0589 57.1623 92.5189 58.2063 91.8949 59.0943C91.2949 60.0063 90.5509 60.7023 89.6629 61.1823C88.7989 61.6863 87.7429 61.9383 86.4949 61.9383C85.9189 61.9383 85.4149 61.9023 84.9829 61.8303C84.5509 61.7823 84.1789 61.7223 83.8669 61.6503V59.1303C84.1309 59.1783 84.4429 59.2263 84.8029 59.2743C85.1869 59.3223 85.5829 59.3463 85.9909 59.3463C86.7349 59.3463 87.3709 59.2023 87.8989 58.9143C88.4509 58.6503 88.9189 58.2543 89.3029 57.7263C89.6869 57.2223 90.0109 56.6223 90.2749 55.9263L91.2829 53.3703L83.5069 34.0023ZM121.19 34.0023V53.2983H118.022V36.7023H108.05V53.2983H104.882V34.0023H121.19ZM130.335 45.7743C130.335 45.9903 130.323 46.3023 130.299 46.7103C130.299 47.0943 130.287 47.5143 130.263 47.9703C130.239 48.4023 130.215 48.8223 130.191 49.2303C130.167 49.6143 130.143 49.9263 130.119 50.1663L140.451 34.0023H144.339V53.2983H141.387V41.9223C141.387 41.5383 141.387 41.0343 141.387 40.4103C141.411 39.7863 141.435 39.1743 141.459 38.5743C141.483 37.9503 141.507 37.4823 141.531 37.1703L131.271 53.2983H127.347V34.0023H130.335V45.7743ZM163.8 36.6663H157.5V53.2983H154.368V36.6663H148.14V34.0023H163.8V36.6663ZM176.493 41.9223C178.173 41.9223 179.565 42.1263 180.669 42.5343C181.773 42.9423 182.601 43.5543 183.153 44.3703C183.729 45.1623 184.017 46.1703 184.017 47.3943C184.017 48.5943 183.741 49.6383 183.189 50.5263C182.661 51.4143 181.833 52.0983 180.705 52.5783C179.577 53.0583 178.125 53.2983 176.349 53.2983H167.601V34.0023H170.769V41.9223H176.493ZM180.849 47.5743C180.849 46.3983 180.429 45.6063 179.589 45.1983C178.773 44.7663 177.621 44.5503 176.133 44.5503H170.769V50.7423H176.205C177.549 50.7423 178.653 50.5023 179.517 50.0223C180.405 49.5423 180.849 48.7263 180.849 47.5743Z" fill="black"/>
</svg>
